HIERARCHY
ROOT Hips
{
	OFFSET 0.000000 0.000000 0.000000
	CHANNELS 6 Xposition Yposition Zposition Zrotation Yrotation Xrotation 
	JOINT LHipJoint
	{
		OFFSET 0.000000 0.000000 0.000000
		CHANNELS 3 Zrotation Yrotation Xrotation
		JOINT LeftUpLeg
		{
			OFFSET 1.363060 -1.794630 0.839290
			CHANNELS 3 Zrotation Yrotation Xrotation
			JOINT LeftLeg
			{
				OFFSET 2.448110 -6.726130 0.000000
				CHANNELS 3 Zrotation Yrotation Xrotation
				JOINT LeftFoot
				{
					OFFSET 2.562200 -7.039590 0.000000
					CHANNELS 3 Zrotation Yrotation Xrotation
					JOINT LeftToeBase
					{
						OFFSET 0.157640 -0.433110 2.322550
						CHANNELS 3 Zrotation Yrotation Xrotation
						End Site
						{
							OFFSET 0.000000 0.000000 0.000000
						}
					}
				}
			}
		}
	}
	JOINT RHipJoint
	{
		OFFSET 0.000000 0.000000 0.000000
		CHANNELS 3 Zrotation Yrotation Xrotation
		JOINT RightUpLeg
		{
			OFFSET -1.305520 -1.794630 0.839290
			CHANNELS 3 Zrotation Yrotation Xrotation
			JOINT RightLeg
			{
				OFFSET -2.542530 -6.985550 0.000000
				CHANNELS 3 Zrotation Yrotation Xrotation
				JOINT RightFoot
				{
					OFFSET -2.568260 -7.056230 0.000000
					CHANNELS 3 Zrotation Yrotation Xrotation
					JOINT RightToeBase
					{
						OFFSET -0.164730 -0.452590 2.363150
						CHANNELS 3 Zrotation Yrotation Xrotation
						End Site
						{
							OFFSET 0.000000 0.000000 0.000000
						}
					}
				}
			}
		}
	}
	JOINT LowerBack
	{
		OFFSET 0.000000 0.000000 0.000000
		CHANNELS 3 Zrotation Yrotation Xrotation
		JOINT Spine
		{
			OFFSET 0.028270 2.035590 -0.193380
			CHANNELS 3 Zrotation Yrotation Xrotation
			JOINT Spine1
			{
				OFFSET 0.056720 2.048850 -0.042750
				CHANNELS 3 Zrotation Yrotation Xrotation
				JOINT Neck
				{
					OFFSET 0.000000 0.000000 0.000000
					CHANNELS 3 Zrotation Yrotation Xrotation
					JOINT Neck1
					{
						OFFSET -0.054170 1.746240 0.172020
						CHANNELS 3 Zrotation Yrotation Xrotation
						JOINT Head
						{
							OFFSET 0.104070 1.761360 -0.123970
							CHANNELS 3 Zrotation Yrotation Xrotation
							End Site
							{
								OFFSET 0.000000 0.000000 0.000000
							}
						}
					}
				}
				JOINT LeftShoulder
				{
					OFFSET 0.000000 0.000000 0.000000
					CHANNELS 3 Zrotation Yrotation Xrotation
					JOINT LeftArm
					{
						OFFSET 3.362410 1.200890 -0.311210
						CHANNELS 3 Zrotation Yrotation Xrotation
						JOINT LeftForeArm
						{
							OFFSET 4.983000 -0.000000 -0.000000
							CHANNELS 3 Zrotation Yrotation Xrotation
							JOINT LeftHand
							{
								OFFSET 3.483560 -0.000000 -0.000000
								CHANNELS 3 Zrotation Yrotation Xrotation
								JOINT LeftFingerBase
								{
									OFFSET 0.000000 0.000000 0.000000
									CHANNELS 3 Zrotation Yrotation Xrotation
									JOINT LeftHandIndex1
									{
										OFFSET 0.715260 -0.000000 -0.000000
										CHANNELS 3 Zrotation Yrotation Xrotation
										End Site
										{
											OFFSET 0.000000 0.000000 0.000000
										}
									}
								}
								JOINT LThumb
								{
									OFFSET 0.000000 0.000000 0.000000
									CHANNELS 3 Zrotation Yrotation Xrotation
									End Site
									{
										OFFSET 0.000000 0.000000 0.000000
									}
								}
							}
						}
					}
				}
				JOINT RightShoulder
				{
					OFFSET 0.000000 0.000000 0.000000
					CHANNELS 3 Zrotation Yrotation Xrotation
					JOINT RightArm
					{
						OFFSET -3.136600 1.374050 -0.404650
						CHANNELS 3 Zrotation Yrotation Xrotation
						JOINT RightForeArm
						{
							OFFSET -5.241900 -0.000000 -0.000000
							CHANNELS 3 Zrotation Yrotation Xrotation
							JOINT RightHand
							{
								OFFSET -3.444170 -0.000000 -0.000000
								CHANNELS 3 Zrotation Yrotation Xrotation
								JOINT RightFingerBase
								{
									OFFSET 0.000000 0.000000 0.000000
									CHANNELS 3 Zrotation Yrotation Xrotation
									JOINT RightHandIndex1
									{
										OFFSET -0.622530 -0.000000 -0.000000
										CHANNELS 3 Zrotation Yrotation Xrotation
										End Site
										{
											OFFSET 0.000000 0.000000 0.000000
										}
									}
								}
								JOINT RThumb
								{
									OFFSET 0.000000 0.000000 0.000000
									CHANNELS 3 Zrotation Yrotation Xrotation
									End Site
									{
										OFFSET 0.000000 0.000000 0.000000
									}
								}
							}
						}
					}
				}
			}
		}
	}
}
MOTION
Frames: 11
Frame Time: 0.008333
7.772109 17.870389 34.275851 179.557458 -4.445493 -155.082208 9.121689 1.649210 -1.775050 -25.561601 -16.903604 -16.898212 -1.190613 4.678166 10.672024 0.731404 -2.218695 -17.955164 2.842000 -10.434800 -30.396500 -13.714908 -3.124279 -1.739379 32.989813 16.268006 -15.272100 1.355602 -3.471952 7.975540 -1.214787 -2.700796 -22.361195 -2.876800 10.492800 -30.587900 -3.129701 -0.847212 -24.257204 1.781938 -1.580313 -5.027977 0.599711 -1.847236 14.311054 -10.145549 -4.072833 -2.704069 8.465563 -8.998185 28.625305 0.791000 -3.825100 6.474400 16.681991 -1.414619 0.382313 -105.925903 -7.377040 20.380759 17.310781 -21.521114 -4.303904 -1.712591 0.649942 0.271491 22.116746 -13.554943 -6.134700 -7.125000 0.000000 0.000000 -2.467800 14.650100 1.765100 -10.986436 0.579680 0.349256 98.144861 -2.689280 -0.757941 -11.543939 21.398000 -2.918845 1.280895 4.066859 7.937078 -14.459203 -51.822610 12.659600 7.125000 0.000000 0.000000 78.376100 -77.470400 -65.540600 
7.770467 17.872468 34.271801 179.610469 -4.424939 -155.014611 9.123977 1.641215 -1.781788 -25.487964 -16.889715 -16.952405 -1.192234 4.672848 10.650210 0.729752 -2.251253 -17.983345 2.757600 -10.291900 -29.927300 -13.720069 -3.118393 -1.727096 33.026684 16.353492 -15.306647 1.359738 -3.462324 7.926037 -1.211938 -2.709815 -22.352019 -2.838100 10.428200 -30.374900 -3.048314 -0.843239 -24.301636 1.780766 -1.605140 -5.033444 0.542879 -1.851875 14.309989 -10.067914 -4.056986 -2.638088 8.533466 -8.978035 28.394018 0.798300 -3.804900 6.381900 16.714783 -1.437392 0.376391 -105.913642 -7.432581 20.656517 17.471509 -21.750825 -4.396537 -1.712811 0.635761 0.201926 22.167287 -13.570260 -6.150000 -7.125000 0.000000 0.000000 -2.433900 14.642000 1.741200 -11.010281 0.576368 0.337986 98.201602 -2.594716 -0.419598 -11.726581 21.661499 -3.000335 1.254448 4.042707 7.616242 -14.363281 -51.472065 12.523900 7.125000 0.000000 0.000000 76.652000 -77.406000 -63.796800 
7.768059 17.872687 34.266547 179.612260 -4.329015 -154.985677 9.121493 1.646266 -1.776467 -25.524706 -16.857866 -16.910290 -1.199818 4.639608 10.571802 0.743721 -2.184447 -18.041592 2.763300 -10.301700 -29.959400 -13.711643 -3.136708 -1.733407 33.018675 16.172452 -15.348212 1.351991 -3.434556 7.860972 -1.195855 -2.542219 -22.149040 -2.870400 10.482200 -30.552800 -3.010717 -0.806582 -24.301723 1.770874 -1.581676 -5.054191 0.516505 -1.830359 14.221336 -10.018722 -4.057302 -2.376084 8.558761 -9.001016 28.061387 0.796000 -3.819600 6.213000 16.743573 -1.464267 0.371088 -105.938760 -7.370679 21.047871 17.629246 -21.976649 -4.490466 -1.723056 0.613589 0.017746 22.277828 -13.559779 -6.171700 -7.125000 0.000000 0.000000 -2.351200 14.659500 1.681100 -11.026410 0.558518 0.329708 98.211548 -2.545806 -0.400103 -11.821531 21.782966 -3.036460 1.210540 4.007267 7.537795 -13.680086 -50.929806 11.841300 7.125000 0.000000 0.000000 74.166600 -77.067900 -61.039000 
7.765870 17.869951 34.261074 179.457195 -4.189822 -155.065671 9.109633 1.672867 -1.756161 -25.801835 -16.767823 -16.750063 -1.202798 4.600892 10.501507 0.752969 -2.138547 -18.057661 2.856400 -10.458900 -30.476000 -13.689123 -3.168383 -1.764973 32.855774 15.812875 -15.273798 1.336618 -3.380879 7.791851 -1.186270 -2.299939 -21.949088 -2.980600 10.663700 -31.153700 -3.173869 -0.850689 -24.171547 1.770221 -1.586244 -5.062760 0.605889 -1.835277 14.136022 -9.996858 -4.109760 -2.241382 8.428232 -9.014483 27.829007 0.745400 -3.834800 6.104800 16.760828 -1.472239 0.365517 -106.022018 -7.338877 21.264911 17.740233 -22.135108 -4.560236 -1.715619 0.613922 -0.020795 22.226934 -13.670327 -6.202300 -7.125000 0.000000 0.000000 -2.398400 14.546000 1.720700 -11.032600 0.568833 0.320340 98.121875 -2.482068 -0.207857 -11.933821 21.928808 -3.081991 1.173383 4.000799 7.384217 -13.226868 -50.808305 11.424800 7.125000 0.000000 0.000000 73.685700 -76.867200 -60.360800 
7.764885 17.867762 34.256696 179.409705 -4.119490 -155.120753 9.104490 1.681652 -1.752447 -25.892582 -16.736107 -16.644535 -1.206690 4.569652 10.440398 0.760445 -2.079638 -18.048908 2.826100 -10.408000 -30.308400 -13.687425 -3.167639 -1.763989 32.796792 15.858537 -15.197512 1.334224 -3.380897 7.813312 -1.195712 -2.261822 -22.012336 -3.002200 10.698600 -31.269800 -3.228146 -0.889181 -24.091458 1.783876 -1.621130 -5.067896 0.664623 -1.853420 14.088259 -10.024073 -4.112209 -2.261825 8.350517 -8.972136 27.798868 0.726900 -3.818800 6.102500 16.777495 -1.472270 0.362263 -106.067892 -7.336033 21.424981 17.826350 -22.256153 -4.613125 -1.715407 0.622215 0.015962 22.265739 -13.799482 -6.271100 -7.125000 0.000000 0.000000 -2.380700 14.395300 1.715600 -11.044905 0.588849 0.310139 98.063468 -2.432266 0.245937 -12.114173 22.185329 -3.164895 1.154270 4.002371 7.021357 -13.315808 -50.828498 11.506300 7.125000 0.000000 0.000000 73.726100 -76.905600 -60.441300 
7.762367 17.868090 34.253193 179.484529 -4.062558 -155.092211 9.106844 1.673847 -1.760432 -25.811850 -16.763186 -16.606587 -1.216890 4.531169 10.344622 0.776469 -1.964760 -18.074241 2.758000 -10.292600 -29.929600 -13.696431 -3.155471 -1.742447 32.853200 16.053805 -15.220475 1.336899 -3.411737 7.863200 -1.202744 -2.271598 -22.098655 -2.971600 10.649000 -31.105000 -3.125840 -0.858330 -24.120742 1.789358 -1.625192 -5.081572 0.627806 -1.847512 14.040822 -10.044136 -4.055767 -2.180044 8.387029 -8.922982 27.753690 0.748700 -3.798000 6.072600 16.795854 -1.485006 0.363225 -106.071845 -7.300251 21.584343 17.900717 -22.367655 -4.662313 -1.709331 0.638649 0.011707 22.220686 -14.029464 -6.360300 -7.125000 0.000000 0.000000 -2.431800 14.136400 1.765800 -11.064373 0.586377 0.303406 98.104151 -2.415160 0.613281 -12.285152 22.439126 -3.251238 1.166942 4.012770 6.720736 -13.875193 -51.072523 12.034400 7.125000 0.000000 0.000000 74.701200 -77.164900 -61.656200 
7.760506 17.869513 34.251223 179.457573 -3.942002 -155.064776 9.108120 1.671965 -1.764127 -25.878075 -16.741903 -16.587930 -1.221021 4.522735 10.326108 0.790504 -1.912156 -18.154751 2.776600 -10.324300 -30.033400 -13.695638 -3.148554 -1.732445 32.782756 16.151012 -15.226281 1.337569 -3.408190 7.843647 -1.202696 -2.267321 -22.103971 -2.955800 10.623100 -31.019100 -3.152945 -0.833507 -24.132769 1.775270 -1.587593 -5.090452 0.619901 -1.829319 13.994933 -10.084065 -3.980415 -2.101100 8.503848 -8.870010 27.683098 0.798300 -3.770900 6.038200 16.802341 -1.507363 0.365716 -106.040701 -7.308133 21.768801 17.910659 -22.387494 -4.676103 -1.689735 0.652341 -0.008529 22.008742 -14.187429 -6.364600 -7.125000 0.000000 0.000000 -2.600300 13.977300 1.897300 -11.083295 0.580185 0.297291 98.170523 -2.401611 0.870392 -12.456205 22.687163 -3.335807 1.171869 4.029915 6.477590 -14.276666 -51.440035 12.441800 7.125000 0.000000 0.000000 76.335500 -77.367200 -63.448600 
7.760068 17.869513 34.250018 179.384629 -3.838006 -155.046907 9.105631 1.674796 -1.768037 -25.987142 -16.585127 -16.662028 -1.212804 4.545717 10.385249 0.775217 -2.045649 -18.156375 2.831500 -10.417100 -30.338300 -13.692840 -3.141611 -1.723709 32.661861 16.226094 -15.229185 1.338013 -3.401648 7.823696 -1.205839 -2.270016 -22.137035 -2.942500 10.601400 -30.947200 -3.252782 -0.844048 -24.096253 1.771514 -1.575662 -5.107340 0.667328 -1.828743 13.914855 -10.101796 -3.953785 -2.107115 8.516455 -8.829726 27.663613 0.806200 -3.750500 6.039900 16.806616 -1.514416 0.363113 -106.034207 -7.308509 22.065657 17.899416 -22.363141 -4.669857 -1.707395 0.648637 -0.064049 22.174351 -14.147541 -6.400800 -7.125000 0.000000 0.000000 -2.473800 14.002100 1.803400 -11.094024 0.593161 0.287199 98.186383 -2.373348 1.087234 -12.625431 22.917549 -3.412080 1.140979 4.029043 6.178104 -14.116898 -51.440600 12.299000 7.125000 0.000000 0.000000 76.320000 -77.303000 -63.363500 
7.758755 17.868309 34.246406 179.367176 -3.762799 -155.056711 9.099855 1.685397 -1.766128 -26.034983 -16.427752 -16.664291 -1.208143 4.525931 10.347152 0.753485 -2.161067 -18.059428 2.754100 -10.285900 -29.907600 -13.689858 -3.153144 -1.727111 32.645545 16.143530 -15.174762 1.337020 -3.356991 7.729535 -1.200758 -2.209873 -22.059771 -2.940600 10.598200 -30.936400 -3.287818 -0.853970 -24.054497 1.784708 -1.589245 -5.122340 0.717473 -1.834356 13.845494 -10.055612 -3.958787 -2.038273 8.388559 -8.785237 27.554387 0.756100 -3.732700 5.985500 16.821956 -1.509613 0.361118 -106.092800 -7.215769 22.414725 17.947138 -22.422770 -4.696109 -1.750362 0.640085 -0.061030 22.629871 -14.090897 -6.519800 -7.125000 0.000000 0.000000 -2.131300 14.017000 1.552700 -11.100235 0.605098 0.277210 98.146071 -2.332760 1.389196 -12.795880 23.149443 -3.490451 1.103574 4.038174 5.782689 -13.966368 -51.573427 12.183300 7.125000 0.000000 0.000000 76.928800 -77.255500 -63.899700 
7.757003 17.869294 34.241152 179.353066 -3.660068 -155.101006 9.092620 1.705466 -1.752929 -26.105269 -16.351073 -16.558783 -1.213663 4.480046 10.250809 0.759722 -2.101179 -18.035152 2.753900 -10.285600 -29.906700 -13.678485 -3.188385 -1.758058 32.665692 15.811313 -14.991795 1.333795 -3.198055 7.389442 -1.178268 -1.998351 -21.747467 -2.962100 10.633500 -31.053600 -3.299030 -0.845908 -24.031435 1.781845 -1.572990 -5.114635 0.713418 -1.824181 13.857990 -9.998752 -3.960852 -1.996043 8.334431 -8.753817 27.425933 0.727400 -3.715100 5.928700 16.829924 -1.510837 0.363613 -106.115469 -7.179098 22.631767 17.957563 -22.439086 -4.704841 -1.768846 0.656476 0.015466 22.832590 -14.232574 -6.653000 -7.125000 0.000000 0.000000 -1.991900 13.824200 1.459200 -11.112460 0.608071 0.269058 98.145940 -2.271022 1.758489 -12.978991 23.408103 -3.580387 1.085821 4.056070 5.388311 -14.173925 -51.895565 12.412200 7.125000 0.000000 0.000000 78.400500 -77.361300 -65.444800 
7.753829 17.869951 34.235022 179.263439 -3.585811 -155.073559 9.096976 1.700079 -1.764216 -26.252104 -16.358132 -16.503317 -1.218085 4.462104 10.207650 0.771719 -2.047781 -18.090083 2.804900 -10.372300 -30.191100 -13.679771 -3.164345 -1.737780 32.506869 16.066519 -15.123506 1.327148 -3.340982 7.717977 -1.190997 -2.076252 -21.915051 -2.973700 10.652300 -31.116100 -3.373953 -0.860192 -24.105430 1.768268 -1.555087 -5.098028 0.699037 -1.823592 13.941157 -9.977109 -3.971144 -1.980701 8.390861 -8.753859 27.241145 0.738700 -3.707900 5.861500 16.817309 -1.535768 0.367197 -106.115059 -7.302710 22.690079 17.867226 -22.307869 -4.652993 -1.764068 0.663240 0.134266 22.773548 -14.179567 -6.613000 -7.125000 0.000000 0.000000 -2.030600 13.884600 1.484900 -11.121154 0.600766 0.260244 98.159557 -2.189065 2.112548 -13.138869 23.627183 -3.656504 1.068972 4.040037 4.973554 -14.331648 -51.596022 12.511000 7.125000 0.000000 0.000000 76.936600 -77.401800 -64.067500 
